<svg width="48" height="69" viewBox="0 0 48 69" fill="none" xmlns="http://www.w3.org/2000/svg">
<path d="M0.768 66.12L26.016 29.448C27.808 26.76 28.704 24.2 28.704 21.768C28.704 20.168 28.224 18.856 27.264 17.832C26.304 16.744 25.024 16.2 23.424 16.2C21.632 16.2 20.192 16.808 19.104 18.024C18.08 19.176 17.568 20.584 17.568 22.248H1.632C1.632 15.464 3.648 10.184 7.68 6.408C11.776 2.568 17.216 0.647999 24 0.647999C30.976 0.647999 36.448 2.664 40.416 6.696C44.448 10.664 46.464 15.656 46.464 21.672C46.464 26.024 44.896 30.408 41.76 34.824L28.224 53.736H48V69H0.768V66.12Z" fill="#1B2838"/>
</svg>
