<svg width="48" height="70" viewBox="0 0 48 70" fill="none" xmlns="http://www.w3.org/2000/svg">
<path d="M0.384 47.456H16.128C16.256 49.376 16.96 50.88 18.24 51.968C19.52 53.056 21.248 53.6 23.424 53.6C25.6 53.6 27.264 52.896 28.416 51.488C29.632 50.08 30.24 48.288 30.24 46.112C30.24 43.168 29.184 40.896 27.072 39.296C24.96 37.696 21.824 36.896 17.664 36.896C17.216 36.896 16.512 36.928 15.552 36.992C14.656 36.992 14.016 36.992 13.632 36.992V34.688L22.56 15.968H3.168V0.799995H45.888V3.296L33.504 25.952C38.304 27.36 41.888 29.888 44.256 33.536C46.624 37.184 47.808 41.376 47.808 46.112C47.808 52.704 45.632 58.208 41.28 62.624C36.992 66.976 31.2 69.152 23.904 69.152C18.4 69.152 14.016 68.192 10.752 66.272C3.84 62.176 0.384 55.904 0.384 47.456Z" fill="#1B2838"/>
</svg>
