<svg width="49" height="70" viewBox="0 0 49 70" fill="none" xmlns="http://www.w3.org/2000/svg">
<path d="M16.416 16.064V23.552H22.464C30.592 23.552 36.928 25.6 41.472 29.696C46.016 33.728 48.288 39.328 48.288 46.496C48.288 53.408 46.112 58.944 41.76 63.104C37.472 67.264 31.52 69.344 23.904 69.344C17.312 69.344 11.808 67.36 7.392 63.392C2.976 59.424 0.64 54.112 0.384 47.456H16.416C16.864 51.552 19.264 53.6 23.616 53.6C25.792 53.6 27.488 52.96 28.704 51.68C29.92 50.4 30.528 48.672 30.528 46.496C30.528 43.872 29.504 41.824 27.456 40.352C25.472 38.88 22.624 38.144 18.912 38.144H2.208V0.799995H44.064V16.064H16.416Z" fill="#1B2838"/>
</svg>
