<svg width="108" height="1601" viewBox="0 0 108 1601" fill="none" xmlns="http://www.w3.org/2000/svg">
<path d="M23.2 42H5V9.99999H59.8V118.2H80V150H3.2V118.2H23.2V42Z" fill="#1B2838"/>
<path d="M1.6 611L54.2 534.6C57.9333 529 59.8 523.667 59.8 518.6C59.8 515.267 58.8 512.533 56.8 510.4C54.8 508.133 52.1333 507 48.8 507C45.0667 507 42.0667 508.267 39.8 510.8C37.6667 513.2 36.6 516.133 36.6 519.6H3.4C3.4 505.467 7.6 494.467 16 486.6C24.5333 478.6 35.8667 474.6 50 474.6C64.5333 474.6 75.9333 478.8 84.2 487.2C92.6 495.467 96.8 505.867 96.8 518.4C96.8 527.467 93.5333 536.6 87 545.8L58.8 585.2H100V617H1.6V611Z" fill="#1B2838"/>
<path d="M0.8 1041.2H33.6C33.8667 1045.2 35.3333 1048.33 38 1050.6C40.6667 1052.87 44.2667 1054 48.8 1054C53.3333 1054 56.8 1052.53 59.2 1049.6C61.7333 1046.67 63 1042.93 63 1038.4C63 1032.27 60.8 1027.53 56.4 1024.2C52 1020.87 45.4667 1019.2 36.8 1019.2C35.8667 1019.2 34.4 1019.27 32.4 1019.4C30.5333 1019.4 29.2 1019.4 28.4 1019.4V1014.6L47 975.6H6.6V944H95.6V949.2L69.8 996.4C79.8 999.333 87.2667 1004.6 92.2 1012.2C97.1333 1019.8 99.6 1028.53 99.6 1038.4C99.6 1052.13 95.0667 1063.6 86 1072.8C77.0667 1081.87 65 1086.4 49.8 1086.4C38.3333 1086.4 29.2 1084.4 22.4 1080.4C8 1071.87 0.8 1058.8 0.8 1041.2Z" fill="#1B2838"/>
<path d="M62.8 1454L40.8 1495.2H63.2V1454H62.8ZM95 1524.4V1551H61.8V1524.4H0.8V1506.8L54.6 1411H95V1495.2H107V1524.4H95Z" fill="#1B2838"/>
</svg>
